<svg xmlns="http://www.w3.org/2000/svg" viewBox="0 0 1000 1000">
  <path fill="#FF5A5F" d="M500 50C224 50 0 274 0 550s224 500 500 500 500-224 500-500S776 50 500 50zm0 880c-243 0-440-197-440-440S257 60 500 60s440 197 440 440-197 440-440 440zm0-700c-144 0-260 116-260 260 0 115 75 212 179 247v-148c-40-12-72-44-84-84h164V447H335c12-40 44-72 84-84v-148c104 35 179 132 179 247 0 144-116 260-260 260s-260-116-260-260 116-260 260-260 260 116 260 260c0 115-75 212-179 247v-148c40-12 72-44 84-84H447V447h164c-12 40-44 72-84 84v148c104-35 179-132 179-247 0-144-116-260-260-260z"/>
</svg>
